<svg xmlns="http://www.w3.org/2000/svg" xmlns:xlink="http://www.w3.org/1999/xlink" width="320" height="1024" viewBox="0 0 320 1024">
  <defs>
    <linearGradient id="mobile-a" x1="50%" x2="50%" y1="0%" y2="100%">
      <stop offset="0%" stop-color="#F8F9F8"/>
      <stop offset="100%" stop-color="#B6C7A4"/>
    </linearGradient>
    <rect id="mobile-b" width="320" height="1024"/>
    <radialGradient id="mobile-d" cx="34.434%" r="100%" fx="34.434%" fy="50%" gradientTransform="matrix(0 .82605 -.66409 0 .676 .216)">
      <stop offset="0%" stop-color="#1AA160"/>
      <stop offset="100%"/>
    </radialGradient>
    <linearGradient id="mobile-c" x1="50%" x2="50%" y1="0%" y2="100%">
      <stop offset="0%" stop-color="#B4EC51"/>
      <stop offset="100%" stop-color="#429321"/>
    </linearGradient>
    <radialGradient id="mobile-e" cx="34.434%" r="100%" fx="34.434%" fy="50%" gradientTransform="matrix(0 .9969 -.66409 0 .676 .157)">
      <stop offset="0%" stop-color="#1AA160"/>
      <stop offset="100%"/>
    </radialGradient>
    <linearGradient id="mobile-f" x1="50%" x2="50%" y1="0%" y2="100%">
      <stop offset="0%" stop-color="#B5EB45"/>
      <stop offset="100%" stop-color="#7ED321"/>
    </linearGradient>
    <rect id="mobile-g" width="320" height="285" x="-1" y="739"/>
    <linearGradient id="mobile-h" x1="50%" x2="50%" y1="0%" y2="100%">
      <stop offset="0%" stop-color="#1E79AF"/>
      <stop offset="100%" stop-color="#63FFD3"/>
    </linearGradient>
    <linearGradient id="mobile-i" x1="84.718%" x2="5.244%" y1="14.446%" y2="96.562%">
      <stop offset="0%" stop-color="#DC4057"/>
      <stop offset="100%" stop-color="#9E36BB"/>
    </linearGradient>
    <linearGradient id="mobile-j" x1="50%" x2="50%" y1="0%" y2="97.826%">
      <stop offset="0%" stop-color="#FF9676"/>
      <stop offset="100%" stop-color="#FFD074"/>
    </linearGradient>
    <linearGradient id="mobile-k" x1="17.444%" y1="0%" y2="100%">
      <stop offset="0%" stop-color="#51C6AD"/>
      <stop offset="100%" stop-color="#D5FFA1"/>
    </linearGradient>
  </defs>
  <g fill="none" fill-rule="evenodd">
    <use fill="url(#mobile-a)" xlink:href="#mobile-b"/>
    <rect width="319" height="1023" x=".5" y=".5" stroke="#979797"/>
    <g opacity=".381" transform="translate(17 247)">
      <polygon fill="url(#mobile-d)" stroke="url(#mobile-c)" stroke-linejoin="round" stroke-width="26.101" points="0 0 0 331.473 273.812 165.736"/>
      <path fill="url(#mobile-e)" d="M158.343549,186.37292 L84.9982038,223.159396 C74.6875253,228.330733 62.1498408,224.138536 56.9945015,213.795861 C55.5453557,210.888576 54.7909091,207.682771 54.7909091,204.432327 L54.7909091,130.859375 C54.7909091,119.295913 64.1359474,109.921875 75.6636364,109.921875 C78.9040249,109.921875 82.0999122,110.678663 84.9982038,112.132306 L158.343549,148.918782 C168.654227,154.090119 172.833455,166.666711 167.678116,177.009386 C165.658394,181.061366 162.382993,184.34693 158.343549,186.37292 Z"/>
      <path fill="url(#mobile-f)" stroke="#417505" stroke-width="2.61" d="M125.744637,175.140477 L95.8167254,190.15087 C91.6095453,192.260988 86.4936553,190.550399 84.3900653,186.330163 C83.7987543,185.143871 83.4909091,183.835771 83.4909091,182.509457 L83.4909091,152.488672 C83.4909091,147.770305 87.3040683,143.945312 92.0078387,143.945312 C93.3300502,143.945312 94.6341034,144.254113 95.8167254,144.847259 L125.744637,159.857651 C129.951817,161.967769 131.657114,167.099535 129.553524,171.319771 C128.729394,172.973145 127.392896,174.31379 125.744637,175.140477 Z"/>
      <path stroke="url(#mobile-c)" stroke-linecap="round" stroke-width="26.101" d="M286.1337,333.527832 L0,151.796875"/>
    </g>
    <text fill="#417505" font-family="Orbitron-Medium, Orbitron" font-size="36" font-weight="400">
      <tspan x="19" y="72">Welcome to</tspan> <tspan x="19" y="115">Rhythm</tspan>
    </text>
    <use fill="#3B3A3A" xlink:href="#mobile-g"/>
    <rect width="319" height="284" x="-.5" y="739.5" stroke="#979797"/>
    <g transform="translate(20 882)">
      <rect width="280" height="95" fill="#000" rx="12"/>
      <path fill="#FFF" d="M108.440123 69.4584L103.673827 69.4584 101.062963 61.2495 91.9879012 61.2495 89.5008642 69.4584 84.8604938 69.4584 93.8516049 41.5116 99.4049383 41.5116 108.440123 69.4584 108.440123 69.4584zM100.275926 57.8055L92.777037 57.8055 95.0961728 50.508C95.7048148 48.1875 96.1476543 46.4319 96.4225926 45.2433L96.5065432 45.2433C97.197037 48.0069 97.6650617 49.7625 97.9148148 50.508L100.275926 57.8055zM131.562222 59.1348C131.562222 62.562 130.636667 65.271 128.785556 67.2597 127.127531 69.03 125.068642 69.9141 122.610988 69.9141 119.958148 69.9141 118.052469 68.9607 116.891852 67.0539L116.807901 67.0539 116.807901 77.6694 112.333333 77.6694 112.333333 55.9407C112.333333 53.7861 112.276667 51.5748 112.167531 49.3068L116.102716 49.3068 116.352469 52.5009 116.43642 52.5009C117.928642 50.0943 120.19321 48.8931 123.232222 48.8931 125.608025 48.8931 127.591358 49.8318 129.178025 51.7113 130.768889 53.5929 131.562222 56.0667 131.562222 59.1348zM127.003704 59.2986C127.003704 57.3372 126.562963 55.7202 125.677284 54.4476 124.709753 53.1204 123.410617 52.4568 121.781975 52.4568 120.678025 52.4568 119.674815 52.8264 118.778642 53.5551 117.88037 54.2901 117.292716 55.2498 117.017778 56.4384 116.879259 56.9928 116.81 57.4464 116.81 57.8034L116.81 61.1634C116.81 62.6292 117.259136 63.8661 118.157407 64.8762 119.055679 65.8863 120.222593 66.3903 121.658148 66.3903 123.343457 66.3903 124.655185 65.7393 125.593333 64.4415 126.53358 63.1416 127.003704 61.428 127.003704 59.2986zM154.726296 59.1348C154.726296 62.562 153.800741 65.271 151.947531 67.2597 150.291605 69.03 148.232716 69.9141 145.775062 69.9141 143.122222 69.9141 141.216543 68.9607 140.058025 67.0539L139.974074 67.0539 139.974074 77.6694 135.499506 77.6694 135.499506 55.9407C135.499506 53.7861 135.44284 51.5748 135.333704 49.3068L139.268889 49.3068 139.518642 52.5009 139.602593 52.5009C141.092716 50.0943 143.357284 48.8931 146.398395 48.8931 148.772099 48.8931 150.755432 49.8318 152.346296 51.7113 153.930864 53.5929 154.726296 56.0667 154.726296 59.1348zM150.167778 59.2986C150.167778 57.3372 149.724938 55.7202 148.839259 54.4476 147.871728 53.1204 146.57679 52.4568 144.946049 52.4568 143.84 52.4568 142.838889 52.8264 141.940617 53.5551 141.042346 54.2901 140.45679 55.2498 140.181852 56.4384 140.045432 56.9928 139.974074 57.4464 139.974074 57.8034L139.974074 61.1634C139.974074 62.6292 140.42321 63.8661 141.317284 64.8762 142.215556 65.8842 143.382469 66.3903 144.822222 66.3903 146.507531 66.3903 147.819259 65.7393 148.757407 64.4415 149.697654 63.1416 150.167778 61.428 150.167778 59.2986zM180.625062 61.6212C180.625062 63.9984 179.800247 65.9325 178.144321 67.4256 176.324691 69.0573 173.791481 69.8721 170.536296 69.8721 167.530864 69.8721 165.121481 69.2925 163.297654 68.1312L164.334444 64.3995C166.298889 65.5881 168.454321 66.1845 170.80284 66.1845 172.488148 66.1845 173.799877 65.8023 174.742222 65.0421 175.68037 64.2819 176.148395 63.2613 176.148395 61.9887 176.148395 60.8547 175.762222 59.8992 174.987778 59.1243 174.217531 58.3494 172.930988 57.6291 171.134444 56.9634 166.244321 55.1385 163.801358 52.4652 163.801358 48.9498 163.801358 46.6524 164.657654 44.7687 166.372346 43.3029 168.080741 41.835 170.36 41.1021 173.210123 41.1021 175.751728 41.1021 177.863086 41.5452 179.548395 42.4293L178.429753 46.0791C176.855679 45.2223 175.075926 44.7939 173.084198 44.7939 171.510123 44.7939 170.280247 45.1824 169.398765 45.9552 168.653704 46.6461 168.280123 47.4882 168.280123 48.4857 168.280123 49.5903 168.706173 50.5038 169.562469 51.222 170.307531 51.8856 171.661235 52.6038 173.625679 53.3787 176.028765 54.3468 177.793827 55.4787 178.929259 56.7765 180.060494 58.0701 180.625062 59.6892 180.625062 61.6212zM195.419259 52.6668L190.48716 52.6668 190.48716 62.4507C190.48716 64.9392 191.356049 66.1824 193.098025 66.1824 193.897654 66.1824 194.560864 66.1131 195.085556 65.9745L195.209383 69.3744C194.327901 69.7041 193.167284 69.87 191.72963 69.87 189.962469 69.87 188.581481 69.3303 187.584568 68.253 186.591852 67.1736 186.092346 65.3634 186.092346 62.8203L186.092346 52.6626 183.154074 52.6626 183.154074 49.3026 186.092346 49.3026 186.092346 45.6129 190.48716 44.2857 190.48716 49.3026 195.419259 49.3026 195.419259 52.6668zM217.672469 59.2167C217.672469 62.3142 216.78679 64.8573 215.01963 66.846 213.16642 68.8935 210.706667 69.9141 207.64037 69.9141 204.685309 69.9141 202.332593 68.9334 200.578025 66.972 198.823457 65.0106 197.946173 62.5347 197.946173 59.5506 197.946173 56.4279 198.848642 53.8701 200.659877 51.8814 202.466914 49.8906 204.905679 48.8952 207.971975 48.8952 210.927037 48.8952 213.304938 49.8759 215.099383 51.8394 216.816173 53.7441 217.672469 56.2032 217.672469 59.2167zM213.03 59.3616C213.03 57.5031 212.633333 55.9092 211.829506 54.5799 210.891358 52.9713 209.550247 52.1691 207.812469 52.1691 206.013827 52.1691 204.647531 52.9734 203.709383 54.5799 202.905556 55.9113 202.508889 57.5304 202.508889 59.4456 202.508889 61.3041 202.905556 62.898 203.709383 64.2252 204.676914 65.8338 206.028519 66.636 207.772593 66.636 209.480988 66.636 210.822099 65.817 211.78963 64.1832 212.614444 62.8287 213.03 61.218 213.03 59.3616zM232.216914 53.2443C231.774074 53.1624 231.301852 53.1204 230.806543 53.1204 229.232469 53.1204 228.015185 53.7147 227.158889 54.9054 226.413827 55.9554 226.040247 57.2826 226.040247 58.8849L226.040247 69.4584 221.567778 69.4584 221.609753 55.653C221.609753 53.3304 221.553086 51.2157 221.441852 49.3089L225.339259 49.3089 225.502963 53.1645 225.62679 53.1645C226.099012 51.8394 226.844074 50.7726 227.864074 49.9725 228.860988 49.2522 229.937654 48.8931 231.098272 48.8931 231.511728 48.8931 231.885309 48.9225 232.216914 48.975L232.216914 53.2443zM252.228642 58.4292C252.228642 59.2314 252.176173 59.9076 252.064938 60.4599L238.641235 60.4599C238.693704 62.4507 239.342222 63.9732 240.588889 65.0232 241.720123 65.9619 243.182963 66.4323 244.979506 66.4323 246.967037 66.4323 248.78037 66.1152 250.411111 65.4789L251.112099 68.5869C249.20642 69.4185 246.956543 69.8322 244.36037 69.8322 241.237407 69.8322 238.786049 68.9124 237.002099 67.0749 235.222346 65.2374 234.33037 62.7699 234.33037 59.6745 234.33037 56.6358 235.159383 54.1053 236.819506 52.0872 238.557284 49.9326 240.905802 48.8553 243.860864 48.8553 246.763457 48.8553 248.960864 49.9326 250.453086 52.0872 251.634691 53.7987 252.228642 55.9155 252.228642 58.4292zM247.961852 57.2679C247.991235 55.9407 247.699506 54.7941 247.092963 53.826 246.318519 52.5807 245.128519 51.9591 243.52716 51.9591 242.064321 51.9591 240.874321 52.566 239.965556 53.784 239.220494 54.7521 238.777654 55.9134 238.641235 57.2658L247.961852 57.2658 247.961852 57.2679zM98.7962963 24.3189C98.7962963 26.7906 98.0554321 28.6512 96.5758025 29.9007 95.2053086 31.0536 93.2576543 31.6311 90.7349383 31.6311 89.4840741 31.6311 88.4137037 31.5765 87.5175309 31.4673L87.5175309 17.9622C88.6865432 17.7732 89.9458025 17.6766 91.3058025 17.6766 93.7088889 17.6766 95.5201235 18.1995 96.7416049 19.2453 98.11 20.4276 98.7962963 22.1181 98.7962963 24.3189zM96.4771605 24.3798C96.4771605 22.7775 96.0532099 21.549 95.2053086 20.6922 94.3574074 19.8375 93.1191358 19.4091 91.4883951 19.4091 90.7958025 19.4091 90.2060494 19.4553 89.717037 19.5519L89.717037 29.8188C89.9877778 29.8608 90.4830864 29.8797 91.202963 29.8797 92.8861728 29.8797 94.1853086 29.4114 95.1003704 28.4748 96.0154321 27.5382 96.4771605 26.1732 96.4771605 24.3798zM111.092963 26.4777C111.092963 28.0002 110.658519 29.2476 109.78963 30.2262 108.878765 31.2321 107.671975 31.734 106.165062 31.734 104.712716 31.734 103.556296 31.2531 102.693704 30.2871 101.83321 29.3232 101.402963 28.1073 101.402963 26.6415 101.402963 25.1085 101.845802 23.8506 102.735679 22.8741 103.625556 21.8976 104.821852 21.4083 106.328765 21.4083 107.781111 21.4083 108.948025 21.8892 109.831605 22.8531 110.671111 23.7897 111.092963 24.9993 111.092963 26.4777zM108.811605 26.5491C108.811605 25.6356 108.614321 24.8523 108.221852 24.1992 107.760123 23.4096 107.10321 23.0148 106.249012 23.0148 105.365432 23.0148 104.693827 23.4096 104.232099 24.1992 103.837531 24.8523 103.642346 25.6482 103.642346 26.589 103.642346 27.5025 103.83963 28.2858 104.232099 28.9389 104.708519 29.7285 105.371728 30.1233 106.228025 30.1233 107.067531 30.1233 107.726543 29.7222 108.200864 28.9179 108.608025 28.2522 108.811605 27.4626 108.811605 26.5491zM127.580864 21.6099L124.485185 31.5093 122.47037 31.5093 121.188025 27.2106C120.862716 26.1375 120.598272 25.0707 120.392593 24.0123L120.352716 24.0123C120.161728 25.1001 119.897284 26.1648 119.557284 27.2106L118.195185 31.5093 116.157284 31.5093 113.246296 21.6099 115.506667 21.6099 116.625309 26.316C116.896049 27.429 117.118519 28.4895 117.296914 29.4933L117.33679 29.4933C117.500494 28.6659 117.771235 27.6117 118.15321 26.337L119.557284 21.612 121.34963 21.612 122.694938 26.2362C123.020247 27.3639 123.284691 28.4496 123.488272 29.4954L123.549136 29.4954C123.698148 28.4769 123.922716 27.3912 124.220741 26.2362L125.421235 21.612 127.580864 21.612 127.580864 21.6099zM138.983457 31.5093L136.783951 31.5093 136.783951 25.8393C136.783951 24.0921 136.120741 23.2185 134.790123 23.2185 134.137407 23.2185 133.610617 23.4579 133.201358 23.9388 132.796296 24.4197 132.590617 24.9867 132.590617 25.6356L132.590617 31.5072 130.391111 31.5072 130.391111 24.4386C130.391111 23.5692 130.363827 22.6263 130.311358 21.6057L132.244321 21.6057 132.34716 23.1534 132.408025 23.1534C132.664074 22.6725 133.046049 22.2756 133.547654 21.9585 134.143704 21.5889 134.811111 21.402 135.541481 21.402 136.464938 21.402 137.233086 21.7002 137.843827 22.2987 138.60358 23.0316 138.983457 24.1257 138.983457 25.5789L138.983457 31.5093zM142.851481 17.0676L145.048889 17.0676 145.048889 31.5093 142.851481 31.5093 142.851481 17.0676zM157.998272 26.4777C157.998272 28.0002 157.563827 29.2476 156.694938 30.2262 155.784074 31.2321 154.575185 31.734 153.07037 31.734 151.615926 31.734 150.459506 31.2531 149.599012 30.2871 148.738519 29.3232 148.308272 28.1073 148.308272 26.6415 148.308272 25.1085 148.751111 23.8506 149.640988 22.8741 150.530864 21.8976 151.72716 21.4083 153.231975 21.4083 154.68642 21.4083 155.851235 21.8892 156.736914 22.8531 157.57642 23.7897 157.998272 24.9993 157.998272 26.4777zM155.714815 26.5491C155.714815 25.6356 155.517531 24.8523 155.125062 24.1992 154.665432 23.4096 154.00642 23.0148 153.154321 23.0148 152.268642 23.0148 151.597037 23.4096 151.137407 24.1992 150.74284 24.8523 150.547654 25.6482 150.547654 26.589 150.547654 27.5025 150.744938 28.2858 151.137407 28.9389 151.613827 29.7285 152.277037 30.1233 153.133333 30.1233 153.97284 30.1233 154.629753 29.7222 155.104074 28.9179 155.513333 28.2522 155.714815 27.4626 155.714815 26.5491zM168.64321 31.5093L166.668272 31.5093 166.504568 30.369 166.443704 30.369C165.767901 31.2783 164.804568 31.734 163.553704 31.734 162.619753 31.734 161.864198 31.4337 161.295432 30.8373 160.779136 30.2955 160.520988 29.6214 160.520988 28.8213 160.520988 27.6117 161.024691 26.6898 162.038395 26.0514 163.05 25.413 164.472963 25.1001 166.305185 25.1148L166.305185 24.93C166.305185 23.6259 165.620988 22.9749 164.250494 22.9749 163.274568 22.9749 162.414074 23.2206 161.671111 23.7078L161.224074 22.263C162.143333 21.6939 163.278765 21.4083 164.617778 21.4083 167.203457 21.4083 168.500494 22.7733 168.500494 25.5033L168.500494 29.1489C168.500494 30.138 168.548765 30.9255 168.64321 31.5093zM166.359753 28.1073L166.359753 26.5806C163.93358 26.5386 162.720494 27.2043 162.720494 28.5756 162.720494 29.0922 162.859012 29.4786 163.142346 29.7369 163.425679 29.9952 163.786667 30.1233 164.216914 30.1233 164.69963 30.1233 165.150864 29.97 165.562222 29.6655 165.975679 29.3589 166.22963 28.9704 166.324074 28.4937 166.34716 28.3866 166.359753 28.2564 166.359753 28.1073zM181.141358 31.5093L179.189506 31.5093 179.086667 29.9196 179.025802 29.9196C178.402469 31.1292 177.340494 31.734 175.848272 31.734 174.656173 31.734 173.663457 31.2657 172.87642 30.3291 172.089383 29.3925 171.696914 28.1766 171.696914 26.6835 171.696914 25.0812 172.122963 23.7834 172.979259 22.7922 173.808272 21.8682 174.824074 21.4062 176.032963 21.4062 177.361481 21.4062 178.291235 21.8535 178.820123 22.7502L178.862099 22.7502 178.862099 17.0676 181.063704 17.0676 181.063704 28.8423C181.063704 29.8062 181.088889 30.6945 181.141358 31.5093zM178.862099 27.3345L178.862099 25.6839C178.862099 25.3983 178.841111 25.1673 178.801235 24.9909 178.677407 24.4617 178.410864 24.0165 178.005802 23.6574 177.596543 23.2983 177.103333 23.1177 176.534568 23.1177 175.713951 23.1177 175.071728 23.4432 174.599506 24.0963 174.131481 24.7494 173.894321 25.5831 173.894321 26.6016 173.894321 27.5802 174.118889 28.374 174.570123 28.9851 175.046543 29.6361 175.688765 29.9616 176.492593 29.9616 177.214568 29.9616 177.791728 29.6907 178.23037 29.1468 178.654321 28.6449 178.862099 28.0401 178.862099 27.3345zM199.952593 26.4777C199.952593 28.0002 199.518148 29.2476 198.649259 30.2262 197.738395 31.2321 196.533704 31.734 195.024691 31.734 193.574444 31.734 192.418025 31.2531 191.553333 30.2871 190.69284 29.3232 190.262593 28.1073 190.262593 26.6415 190.262593 25.1085 190.705432 23.8506 191.595309 22.8741 192.485185 21.8976 193.681481 21.4083 195.190494 21.4083 196.640741 21.4083 197.809753 21.8892 198.691235 22.8531 199.530741 23.7897 199.952593 24.9993 199.952593 26.4777zM197.673333 26.5491C197.673333 25.6356 197.476049 24.8523 197.08358 24.1992 196.619753 23.4096 195.964938 23.0148 195.108642 23.0148 194.22716 23.0148 193.555556 23.4096 193.091728 24.1992 192.69716 24.8523 192.501975 25.6482 192.501975 26.589 192.501975 27.5025 192.699259 28.2858 193.091728 28.9389 193.568148 29.7285 194.231358 30.1233 195.087654 30.1233 195.92716 30.1233 196.588272 29.7222 197.062593 28.9179 197.467654 28.2522 197.673333 27.4626 197.673333 26.5491zM211.779136 31.5093L209.581728 31.5093 209.581728 25.8393C209.581728 24.0921 208.918519 23.2185 207.585802 23.2185 206.933086 23.2185 206.406296 23.4579 205.999136 23.9388 205.591975 24.4197 205.388395 24.9867 205.388395 25.6356L205.388395 31.5072 203.18679 31.5072 203.18679 24.4386C203.18679 23.5692 203.161605 22.6263 203.109136 21.6057L205.04 21.6057 205.14284 23.1534 205.203704 23.1534C205.461852 22.6725 205.843827 22.2756 206.343333 21.9585 206.941481 21.5889 207.60679 21.402 208.339259 21.402 209.260617 21.402 210.028765 21.7002 210.639506 22.2987 211.401358 23.0316 211.779136 24.1257 211.779136 25.5789L211.779136 31.5093zM226.581728 23.2584L224.159753 23.2584 224.159753 28.0674C224.159753 29.2896 224.59 29.9007 225.442099 29.9007 225.836667 29.9007 226.164074 29.8671 226.422222 29.7978L226.478889 31.4673C226.044444 31.6311 225.47358 31.713 224.770494 31.713 223.901605 31.713 223.225802 31.4484 222.73679 30.9192 222.245679 30.39 222.002222 29.4996 222.002222 28.2501L222.002222 23.2584 220.556173 23.2584 220.556173 21.6099 222.002222 21.6099 222.002222 19.7955 224.157654 19.1445 224.157654 21.6078 226.57963 21.6078 226.57963 23.2584 226.581728 23.2584zM238.225679 31.5093L236.024074 31.5093 236.024074 25.8813C236.024074 24.1068 235.360864 23.2185 234.032346 23.2185 233.012346 23.2185 232.315556 23.733 231.93358 24.762 231.868519 24.9783 231.830741 25.2429 231.830741 25.5537L231.830741 31.5072 229.633333 31.5072 229.633333 17.0676 231.830741 17.0676 231.830741 23.0337 231.872716 23.0337C232.565309 21.948 233.558025 21.4062 234.844568 21.4062 235.755432 21.4062 236.508889 21.7044 237.107037 22.3029 237.852099 23.0484 238.225679 24.1572 238.225679 25.623L238.225679 31.5093zM250.236914 26.0913C250.236914 26.4861 250.207531 26.8179 250.155062 27.0888L243.558642 27.0888C243.588025 28.0674 243.90284 28.8129 244.51358 29.3295 245.071852 29.7915 245.791728 30.0225 246.67321 30.0225 247.649136 30.0225 248.539012 29.8671 249.340741 29.5542L249.684938 31.083C248.74679 31.4904 247.64284 31.6941 246.364691 31.6941 244.832593 31.6941 243.625802 31.2426 242.752716 30.3396 241.875432 29.4366 241.440988 28.2249 241.440988 26.7045 241.440988 25.2114 241.846049 23.9682 242.662469 22.977 243.514568 21.9186 244.66679 21.3894 246.121235 21.3894 247.544198 21.3894 248.625062 21.9186 249.355432 22.977 249.945185 23.817 250.236914 24.8565 250.236914 26.0913zM248.138148 25.5222C248.154938 24.8691 248.010123 24.3063 247.712099 23.8317 247.330123 23.2206 246.748765 22.914 245.961728 22.914 245.243951 22.914 244.658395 23.2122 244.211358 23.8107 243.846173 24.2874 243.63 24.8565 243.558642 25.5222L248.138148 25.5222zM58.4869946 45.7170941C58.5568453 53.8938564 65.6392804 56.5968659 65.7260646 56.6264995 65.6837308 56.8170013 64.6169205 60.5275538 61.9604782 64.2952569 59.7421901 67.6121056 57.4180676 70.8548703 53.7265653 70.9141375 50.1408973 70.9966883 48.9343857 68.8038004 44.8216626 68.8038004 40.6708392 68.8038004 39.3860101 70.8548703 35.9463935 70.9966883 32.4305762 71.1258062 29.7445003 67.4554708 27.4457781 64.1682557 22.8504504 57.4562408 19.2732491 45.2535396 24.0696621 36.9497761 26.3937846 32.87727 30.6313922 30.2546947 35.1611026 30.184844 38.6811533 30.1128767 41.9472015 32.5618837 44.1104557 32.5618837 46.2313762 32.5618837 50.2700152 29.6323887 54.4335388 30.0705429 56.1755723 30.1213434 61.1328535 30.7584662 64.3311678 35.421528 64.0729319 35.5760461 58.4256107 38.8950115 58.4869946 45.7170941zM51.7135959 25.6551336C49.7831772 27.9326889 46.6949307 29.6747224 43.6871183 29.4503536 43.2934145 26.3769239 44.8174292 23.108759 46.5234791 21.1148398 48.451781 18.8521012 51.80038 17.1185345 54.4779892 17 54.8293593 20.1940809 53.5635804 23.3415946 51.7135959 25.6551336z"/>
    </g>
    <g transform="translate(20 762)">
      <rect width="280" height="95" fill="#000" rx="12"/>
      <g transform="translate(20.924 39.044)">
        <path fill="url(#mobile-h)" d="M1.75182996,-0.28559108 C0.962994246,-0.0367713837 0.45249964,0.768521919 0.45249964,1.98688043 L0.457361494,40.3320793 C0.457361494,41.536955 0.952055076,42.3299912 1.71901245,42.5947452 L22.9956983,21.1374171 L1.75182996,-0.28559108"/>
        <path fill="url(#mobile-i)" d="M1.71901245,42.5947452 C2.27083281,42.7835049 2.96243145,42.6952536 3.71601873,42.2785113 L29.6807467,27.8788374 L22.9956983,21.1374171 L1.71901245,42.5947452"/>
        <path fill="url(#mobile-j)" d="M29.6843931,27.8788374 L38.5378281,22.9698577 C40.3330675,21.9709018 40.3330675,20.3456066 38.5378281,19.3491021 L29.6515756,14.4217367 L22.9956983,21.1337399 L29.6843931,27.8788374"/>
        <path fill="url(#mobile-k)" d="M29.6503602,14.4217367 L3.71601873,0.0416742349 C2.9806634,-0.364036699 2.30243485,-0.458416583 1.75304542,-0.28559108 L22.9956983,21.1337399 L29.6503602,14.4217367"/>
      </g>
      <path fill="#FFF" d="M97.0449066 69.5616181L91.5461505 70.8314566C89.3182061 71.1856876 87.3175535 71.4970186 85.1990009 71.4970186 74.5928677 71.4970186 70.5514521 63.6242654 70.5514521 57.4626072 70.5514521 49.9379564 76.2774999 42.9611992 86.0838582 42.9611992 88.1586541 42.9611992 90.1544449 43.2688531 91.9727781 43.7689439 94.8546417 44.5852686 96.2025905 45.5915788 97.0449066 46.1811467L93.850669 49.2405258 92.5039356 49.5445026 93.4641516 48.0013302C92.1636058 46.7204603 89.7727894 44.3560603 85.2354648 44.3560603 79.1690872 44.3560603 74.5928677 49.0064147 74.5928677 55.7956378 74.5928677 63.0874032 79.8181446 69.946492 88.1987644 69.946492 90.6612931 69.946492 91.9290214 69.4476269 93.0800652 68.981856L93.0800652 62.7307208 87.2737968 63.045729 90.35135 61.3787596 98.4998163 61.3787596 97.5031363 62.345847C97.2345189 62.576281 97.198055 62.6547266 97.1226963 62.9636062 97.082586 63.3166115 97.0449066 64.4393644 97.0449066 64.8340439L97.0449066 69.5616181zM109.655339 70.9969278C103.134378 70.9969278 99.6520755 65.8771255 99.6520755 61.2414797 99.6520755 55.8250549 104.038683 51.1906349 110.27401 51.1906349 116.300277 51.1906349 120.073075 55.9513033 120.073075 60.9497601 120.073075 65.8317741 116.345249 70.9969278 109.655339 70.9969278zM114.78581 67.6507319C115.770335 66.3269621 116.015859 64.6747013 116.015859 63.0641146 116.015859 59.4212962 114.289901 52.4739561 109.208048 52.4739561 107.850376 52.4739561 106.502427 53.0071412 105.517902 53.8773973 103.91349 55.3249641 103.629072 57.1439219 103.629072 58.9285597 103.629072 63.0150861 105.640663 69.7552808 110.6034 69.7552808 112.204166 69.7552808 113.838964 68.9720503 114.78581 67.6507319zM131.483845 70.9969278C124.9641 70.9969278 121.47572 65.8771255 121.47572 61.2414797 121.47572 55.8250549 125.861112 51.1906349 132.09887 51.1906349 138.128783 51.1906349 141.905228 55.9513033 141.905228 60.9497601 141.905228 65.8317741 138.17254 70.9969278 131.483845 70.9969278zM136.6131 67.6507319C137.604919 66.3269621 137.84558 64.6747013 137.84558 63.0641146 137.84558 59.4212962 136.124484 52.4739561 131.03777 52.4739561 129.684959 52.4739561 128.322425 53.0071412 127.340331 53.8773973 125.73835 55.3249641 125.452716 57.1439219 125.452716 58.9285597 125.452716 63.0150861 127.4558 69.7552808 132.427045 69.7552808 134.031456 69.7552808 135.668685 68.9720503 136.6131 67.6507319zM156.913769 53.2204152C157.855753 54.0011943 159.821158 55.658358 159.821158 58.8010856 159.821158 61.8641418 158.10857 63.3080315 156.381396 64.6747013 155.851454 65.2127892 155.231568 65.7962285 155.231568 66.6983531 155.231568 67.6139605 155.851454 68.1103742 156.297529 68.4805395L157.779179 69.6339352C159.580496 71.1673019 161.222587 72.5731945 161.222587 75.4291053 161.222587 79.3195177 157.488683 83.2430243 150.432919 83.2430243 144.489303 83.2430243 141.615948 80.3883392 141.615948 77.3277344 141.615948 75.8384933 142.351303 73.7290416 144.777368 72.2839263 147.320117 70.7162396 150.76474 70.5066427 152.609814 70.3840714 152.033684 69.6339352 151.376118 68.8482533 151.376118 67.5661577 151.376118 66.86505 151.585178 66.4470819 151.786945 65.9543454 151.338439 65.9972454 150.886287 66.041371 150.47546 66.041371 146.125317 66.041371 143.666434 62.7687179 143.666434 59.5438675 143.666434 57.6415613 144.526982 55.5308838 146.294266 54.0011943 148.632817 52.0596652 151.42109 51.7250456 153.63688 51.7250456L162.089212 51.7250456 159.46138 53.2204152 156.913769 53.2204152zM154.007596 71.5828185C153.670913 71.5386929 153.469146 71.5386929 153.063181 71.5386929 152.69125 71.5386929 150.47546 71.6195899 148.759226 72.2005778 147.851275 72.5351974 145.227089 73.5243476 145.227089 76.4623812 145.227089 79.3942861 148.060334 81.5086407 152.443295 81.5086407 156.381396 81.5086407 158.471993 79.6051087 158.471993 77.0421433 158.471993 74.9326916 157.119183 73.8197444 154.007596 71.5828185zM155.186596 63.7235481C156.134657 62.7687179 156.217309 61.4498509 156.217309 60.7009404 156.217309 57.7261354 154.458533 53.0929411 151.049159 53.0929411 149.985628 53.0929411 148.833369 53.631029 148.17945 54.463288 147.48542 55.3249641 147.277576 56.4428142 147.277576 57.5177643 147.277576 60.2878752 148.879557 64.8818467 152.403185 64.8818467 153.431467 64.8818467 154.537538 64.3780788 155.186596 63.7235481zM168.123988 67.3651408C168.123988 68.9720503 168.408406 69.2220957 169.756355 69.3483441 170.458893 69.4316926 171.159 69.468464 171.851814 69.5518124L170.334916 70.462517 163.106555 70.462517C164.054616 69.2220957 164.217489 69.0982987 164.217489 68.2721683L164.217489 67.3492066 164.201687 42.7565051 161.009881 42.7565051 164.082572 41.263587 169.948398 41.263587C168.677024 42.0063689 168.296583 42.4586569 168.133711 43.9062237L168.123988 67.3651408zM188.284878 67.6850519L186.32312 69.5518124C185.869753 69.8030836 185.418816 70.0948032 184.969094 70.3019487 183.60656 70.9258365 182.220932 71.0827277 180.989667 71.0827277 179.679398 71.0827277 177.625265 70.9969278 175.529806 69.468464 172.618771 67.4006865 171.346181 63.8461194 171.346181 60.7487432 171.346181 54.3358139 176.522839 51.1906349 180.745359 51.1906349 182.220932 51.1906349 183.736614 51.5632515 184.969094 52.3489334 187.018365 53.7156032 187.548307 55.491661 187.84245 56.4428142L178.200179 60.3712236 175.042405 60.6188176C176.06461 65.8771255 179.591884 68.9352789 183.489875 68.9352789 185.437048 68.9352789 186.882234 68.2942311 188.208304 67.6335719 188.208304 67.6335719 188.474491 67.4938407 188.284878 67.6850519zM182.467671 57.2260446C183.250429 56.9392278 183.657609 56.6916339 183.657609 56.1155488 183.657609 54.463288 181.804028 52.5548532 179.591884 52.5548532 177.95344 52.5548532 174.877102 53.8418516 174.877102 58.3108004 174.877102 59.008231 174.959754 59.751013 175.001079 60.4937949L182.467671 57.2260446zM200.10769 67.8615545L200.10769 78.3965559 198.032894 78.3965559 198.032894 51.5889915 200.10769 51.5889915 200.10769 54.6422421C201.459285 52.6688445 203.929107 51.104835 206.7976 51.104835 211.942657 51.104835 215.407943 55.0405987 215.407943 61.2708968 215.407943 67.4595207 211.942657 71.4774072 206.7976 71.4774072 204.089548 71.4774072 201.663483 70.0690632 200.10769 67.8615545zM213.178783 61.2708968C213.178783 56.5751911 210.751503 52.9936584 206.447547 52.9936584 203.774743 52.9936584 201.218624 55.1116901 200.10769 56.9588392L200.10769 65.5400545C201.218624 67.3908808 203.774743 69.5861324 206.447547 69.5861324 210.751503 69.5861324 213.178783 65.9739568 213.178783 61.2708968zM218.241188 44.186912L220.314768 44.186912 220.314768 70.9944764 218.241188 70.9944764 218.241188 44.186912zM237.535453 70.9368679C237.39689 70.2639516 237.29236 69.6707066 237.215786 69.1755186 237.152582 68.6815564 237.116118 68.1765627 237.116118 67.662989 236.405072 68.7158763 235.397453 69.592261 234.110277 70.2823373 232.821886 70.9773164 231.597915 71.3180646 229.91936 71.3180646 227.898044 71.3180646 226.328881 70.816748 225.209439 69.7994064 224.093644 68.7832905 223.5321 67.4068151 223.5321 65.6650772 223.5321 63.9257907 224.345245 62.5137696 225.966673 61.4339166 227.588101 60.3491608 229.68356 59.8098472 232.277359 59.8098472L237.116118 59.8098472 237.116118 57.3988701C237.116118 56.0101375 236.646949 54.9180274 235.709827 54.126217 234.769058 53.3331808 233.449065 52.9323727 231.737693 52.9323727 230.173392 52.9323727 228.904448 53.2988609 227.938154 54.0122257 226.980369 54.7402991 226.49783 55.6424237 226.49783 56.729631L224.374416 56.729631 224.330659 56.6254454C224.254085 55.1594929 224.918944 53.8737202 226.332527 52.7632244 227.740034 51.6539543 229.583892 51.096255 231.853162 51.096255 234.115139 51.096255 235.945627 51.6453743 237.325178 52.7411615 238.703513 53.8259174 239.395112 55.393604 239.395112 57.4429958L239.395112 67.0158127C239.395112 67.7034376 239.427929 68.3677739 239.513012 69.0149502 239.600525 69.6633523 239.740304 70.3105287 239.926269 70.9368679L237.535453 70.9368679zM230.173392 69.4120812C231.935813 69.4120812 233.202326 69.0149502 234.496795 68.2292683 235.782755 67.4484893 236.657889 66.429922 237.116118 65.1968549L237.116118 61.470688 232.254265 61.470688C230.397037 61.470688 228.859476 61.8849789 227.65009 62.7209151 226.438273 63.5543998 225.824464 64.5631614 225.824464 65.7361685 225.824464 66.8429872 226.213412 67.7279518 226.986447 68.3984167 227.761912 69.0762359 228.821796 69.4120812 230.173392 69.4120812zM243.595753 76.6633981C244.039397 76.8631892 244.796631 76.9857605 245.276739 76.9857605 246.545683 76.9857605 247.429325 76.4623812 248.223022 74.6140063L249.736274 71.1562705 241.563499 51.5889915 243.877741 51.5889915 250.888533 68.5455022 257.83126 51.5889915 260.17832 51.5889915 250.210305 75.2624083C249.175946 77.7015768 247.54844 78.8745839 245.313203 78.8745839 244.642267 78.8745839 243.75741 78.7544641 243.239623 78.5938957L243.595753 76.6633981zM70.3967757 22.0835687C70.3967757 17.9205836 73.4895974 15.2426979 77.3367357 15.2426979 79.9142936 15.2426979 81.59881 16.4726426 82.6503942 17.9787985L80.7664607 19.0700184C80.0530184 18.0778877 78.8032559 17.3062306 77.3367357 17.3062306 74.7207807 17.3062306 72.7761551 19.2880146 72.7761551 22.0835687 72.7761551 24.8382486 74.7207807 26.8609069 77.3367357 26.8609069 78.6855875 26.8609069 79.8746579 26.2465538 80.4691931 25.6718365L80.4691931 23.6293603 76.5043864 23.6293603 76.5043864 21.5868841 82.7693012 21.5868841 82.7693012 26.5240036C81.4811416 27.9719446 79.617026 28.9430188 77.3367357 28.9430188 73.4895974 28.9430188 70.3967757 26.2279746 70.3967757 22.0835687zM85.6379336 28.6853868L85.6379336 15.4606942 94.6984026 15.4606942 94.6984026 17.504409 87.956621 17.504409 87.956621 20.9130775 94.5596777 20.9130775 94.5596777 22.9555537 87.956621 22.9555537 87.956621 26.6429106 94.6984026 26.6429106 94.6984026 28.6853868 85.6379336 28.6853868zM101.116906 28.6853868L101.116906 17.504409 97.1124632 17.504409 97.1124632 15.4606942 107.441274 15.4606942 107.441274 17.504409 103.436832 17.504409 103.436832 28.6853868 101.116906 28.6853868zM115.503419 15.4606942L117.822107 15.4606942 117.822107 28.6853868 115.503419 28.6853868 115.503419 15.4606942zM124.282723 28.6853868L124.282723 17.504409 120.27828 17.504409 120.27828 15.4606942 130.607091 15.4606942 130.607091 17.504409 126.602648 17.504409 126.602648 28.6853868 124.282723 28.6853868zM138.094519 22.0835687C138.094519 18.1373412 140.888834 15.2426979 144.856118 15.2426979 148.799868 15.2426979 151.616479 18.1373412 151.616479 22.0835687 151.616479 26.0285576 148.799868 28.9232009 144.856118 28.9232009 140.888834 28.9232009 138.094519 26.0285576 138.094519 22.0835687zM149.2371 22.0835687C149.2371 19.3474681 147.511709 17.3062306 144.856118 17.3062306 142.178232 17.3062306 140.473898 19.3474681 140.473898 22.0835687 140.473898 24.7986129 142.178232 26.8609069 144.856118 26.8609069 147.511709 26.8609069 149.2371 24.7986129 149.2371 22.0835687zM163.544342 28.6853868L156.644017 19.2285611 156.644017 28.6853868 154.32533 28.6853868 154.32533 15.4606942 156.70471 15.4606942 163.46507 24.6214909 163.46507 15.4606942 165.784996 15.4606942 165.784996 28.6853868 163.544342 28.6853868z"/>
    </g>
    <text fill="#4A4A4A" font-family="Roboto-Medium, Roboto" font-size="18" font-weight="400">
      <tspan x="66" y="19">Tools | Contact | About</tspan>
    </text>
    <text fill="#4A4A4A" font-family="Roboto-Medium, Roboto" font-size="18" font-weight="400">
      <tspan x="20" y="143">This is the app for streaming super</tspan> <tspan x="20" y="167">cool music, and share the best</tspan> <tspan x="20" y="191">songs with your friends!</tspan>
    </text>
    <text fill="#FFF" font-family="Orbitron-Medium, Orbitron" font-size="14" font-weight="400">
      <tspan x="30" y="1001">Colofoon | Copyright 2017 Rhythm</tspan>
    </text>
    <text fill="#4A4A4A" font-family="Roboto-Medium, Roboto" font-size="18" font-weight="400">
      <tspan x="19" y="655">The app for streming music, and </tspan> <tspan x="19" y="679">sharing the best tunes with your </tspan> <tspan x="19" y="703">friends!</tspan>
    </text>
  </g>
</svg>
