<svg xmlns="http://www.w3.org/2000/svg" width="80" height="53" viewBox="0 0 80 53">
  <defs>
    <linearGradient id="back-a" x1="50%" x2="50%" y1="100%" y2="0%">
      <stop offset="0%" stop-color="#B4EC51"/>
      <stop offset="100%" stop-color="#429321"/>
    </linearGradient>
  </defs>
  <path fill="url(#back-a)" fill-rule="evenodd" stroke="#979797" d="M71,23.5 L26,1 L26,14 L0,1 L0,53 L26,40 L26,53 L71,30.5 L71,47.5 C71,49.9852814 73.0147186,52 75.5,52 L75.5,52 C77.9852814,52 80,49.9852814 80,47.5 L80,47.5 L80,4.5 C80,2.01471863 77.9852814,-4.56538782e-16 75.5,0 C73.0147186,4.56538782e-16 71,2.01471863 71,4.5 L71,4.5 L71,23.5 Z" transform="rotate(-180 40 26.5)"/>
</svg>
